<svg width="214" height="184" viewBox="0 0 214 184" fill="none" xmlns="http://www.w3.org/2000/svg">
<g clip-path="url(#clip0_165_1614)">
<path d="M156.262 0.752802C158.267 0.752802 160.002 1.48532 161.467 2.95035L235.489 76.973C236.954 78.4381 237.687 80.173 237.687 82.1777C237.687 84.1825 236.954 85.9174 235.489 87.3825L207.384 115.488C209.312 117.416 211.201 119.266 213.051 121.04C214.902 122.813 216.521 124.625 217.909 126.476C219.297 128.326 220.454 130.408 221.379 132.721C222.304 135.035 222.767 137.618 222.767 140.471C222.767 143.555 222.189 146.485 221.032 149.261C219.875 152.037 218.295 154.466 216.29 156.547C214.285 158.629 211.933 160.287 209.235 161.521C206.536 162.755 203.644 163.41 200.56 163.487C200.406 166.648 199.75 169.54 198.594 172.162C197.437 174.783 195.895 177.096 193.967 179.101C192.04 181.106 189.726 182.687 187.028 183.843C184.329 185 181.437 185.617 178.353 185.694C178.276 188.778 177.621 191.67 176.387 194.368C175.153 197.067 173.495 199.419 171.414 201.424C169.332 203.428 166.903 205.048 164.127 206.281C161.351 207.515 158.421 208.093 155.337 208.016C152.869 208.016 150.363 207.592 147.819 206.744C146.971 209.134 145.853 211.293 144.465 213.221C143.077 215.149 141.38 216.845 139.376 218.31C137.371 219.775 135.25 220.893 133.014 221.664C130.778 222.435 128.349 222.821 125.728 222.821C123.723 222.821 121.949 222.667 120.407 222.358C118.865 222.05 117.439 221.51 116.128 220.739C114.817 219.968 113.506 219.12 112.195 218.194C110.885 217.269 109.535 216.151 108.147 214.84C105.449 217.308 102.827 219.235 100.282 220.623C97.7379 222.011 94.4994 222.744 90.5669 222.821C87.4827 222.821 84.5526 222.243 81.7768 221.086C79.0009 219.929 76.572 218.349 74.4901 216.344C72.4083 214.339 70.7505 211.987 69.5167 209.289C68.283 206.59 67.6276 203.66 67.5505 200.498C64.5434 200.421 61.6904 199.804 58.9916 198.648C56.2929 197.491 53.9411 195.911 51.9364 193.906C49.9316 191.901 48.3509 189.549 47.1943 186.85C46.0377 184.152 45.4208 181.299 45.3437 178.292C42.2594 178.214 39.4065 177.598 36.7848 176.441C34.1632 175.284 31.85 173.704 29.8452 171.699C27.8404 169.694 26.2597 167.342 25.1031 164.644C23.9465 161.945 23.2911 159.092 23.1369 156.085C19.9755 156.008 17.0455 155.352 14.3467 154.119C11.648 152.885 9.29622 151.227 7.29144 149.145C5.28666 147.063 3.70596 144.673 2.54936 141.974C1.39276 139.275 0.814453 136.345 0.814453 133.184C0.814453 130.023 1.39276 127.054 2.54936 124.278C3.70596 121.502 5.40232 118.996 7.63842 116.76L19.8984 104.385L3.012 87.3825C1.54697 85.9174 0.814453 84.1825 0.814453 82.1777C0.814453 80.173 1.54697 78.4381 3.012 76.973L77.0347 2.95035C78.4997 1.48532 80.2346 0.752802 82.2394 0.752802C84.2442 0.752802 85.9791 1.48532 87.4441 2.95035L102.711 18.2175C103.714 17.9091 105.641 17.2537 108.494 16.2513C111.347 15.2489 114.701 14.1309 118.557 12.8971C122.412 11.6634 126.383 10.3141 130.47 8.84903C134.556 7.384 138.489 6.07318 142.267 4.91658C146.045 3.75997 149.168 2.75758 151.636 1.90941C154.103 1.06123 155.645 0.675695 156.262 0.752802ZM36.9005 111.787C34.6644 111.787 32.7367 112.596 31.1175 114.216L18.0479 127.17C16.4286 128.789 15.619 130.755 15.619 133.068C15.619 135.382 16.3901 137.309 17.9322 138.851C19.4743 140.393 21.4406 141.203 23.8309 141.28C26.2212 141.28 28.1874 140.509 29.7296 138.967L42.7992 126.013C44.4184 124.394 45.2281 122.428 45.2281 120.114C45.2281 117.801 44.4184 115.835 42.7992 114.216C41.1799 112.596 39.2137 111.787 36.9005 111.787ZM59.1073 133.994C58.0278 133.994 56.9869 134.186 55.9845 134.572C54.9821 134.957 54.0568 135.574 53.2086 136.422L40.2547 149.492C38.6354 151.111 37.8258 153.078 37.8258 155.391C37.8258 157.627 38.6354 159.516 40.2547 161.058C41.8739 162.6 43.8401 163.41 46.1533 163.487C47.2328 163.487 48.2738 163.294 49.2762 162.909C50.2786 162.523 51.2038 161.945 52.052 161.174L65.006 148.104C66.6252 146.485 67.4349 144.557 67.4349 142.321C67.4349 140.008 66.6252 138.042 65.006 136.422C63.3867 134.803 61.4205 133.994 59.1073 133.994ZM81.3141 156.2C79.078 156.2 77.1503 157.01 75.5311 158.629L62.4615 171.583C60.8422 173.202 60.0326 175.169 60.0326 177.482C60.0326 179.795 60.8037 181.723 62.3458 183.265C63.8879 184.807 65.8542 185.617 68.2445 185.694C70.6348 185.694 72.601 184.923 74.1432 183.381L87.2128 170.427C88.832 168.807 89.6417 166.841 89.6417 164.528C89.6417 162.215 88.832 160.249 87.2128 158.629C85.5935 157.01 83.6273 156.2 81.3141 156.2ZM82.2394 199.804C82.2394 202.041 83.049 203.93 84.6683 205.472C86.2875 207.014 88.2537 207.824 90.5669 207.901C91.6464 207.901 92.6874 207.708 93.6898 207.322C94.6922 206.937 95.6175 206.358 96.4656 205.587L109.42 192.518C111.039 190.899 111.848 188.971 111.848 186.735C111.848 184.422 111.039 182.455 109.42 180.836C107.8 179.217 105.834 178.407 103.521 178.407C102.441 178.407 101.4 178.6 100.398 178.986C99.3957 179.371 98.4704 179.988 97.6222 180.836L84.6683 193.906C83.049 195.525 82.2394 197.491 82.2394 199.804ZM199.75 148.798C201.986 148.798 203.914 147.989 205.533 146.369C207.153 144.75 208.001 142.822 208.078 140.586C208.078 138.273 207.268 136.307 205.649 134.688L132.552 61.4745C132.32 61.2432 131.935 61.0504 131.395 60.8962C130.855 60.742 130.316 60.5878 129.776 60.4336C129.236 60.2794 128.658 60.1637 128.041 60.0866C127.424 60.0095 126.961 59.9709 126.653 59.9709C124.648 59.9709 122.759 60.3565 120.986 61.1275C119.212 61.8986 117.631 62.9396 116.244 64.2504C114.856 65.5612 113.776 67.1419 113.005 68.9925C112.234 70.843 111.848 72.7707 111.848 74.7755C111.848 78.8621 111.077 82.6789 109.535 86.2259C107.993 89.7728 105.873 92.9342 103.174 95.71C100.475 98.4859 97.3524 100.606 93.8054 102.071C90.2585 103.536 86.4032 104.307 82.2394 104.385C79.1551 104.385 76.2636 103.806 73.5649 102.65C70.8661 101.493 68.5144 99.9123 66.5096 97.9076C64.5048 95.9028 62.9241 93.551 61.7675 90.8523C60.6109 88.1535 60.0326 85.262 60.0326 82.1777C60.0326 80.3272 60.2254 78.2838 60.6109 76.0477C60.9964 73.8116 61.6133 71.8069 62.4615 70.0334L84.09 26.6607C84.7839 25.427 85.8249 24.4246 87.2128 23.6536L82.2394 18.6802L18.6262 82.1777L34.2403 97.6762C37.7101 97.2907 40.9872 97.522 44.0715 98.3702C47.1557 99.2184 49.8545 100.645 52.1677 102.65C54.4809 104.654 56.3315 107.083 57.7194 109.936C59.1073 112.789 59.8398 115.989 59.9169 119.536C63.0012 119.69 65.8927 120.307 68.5915 121.387C71.2902 122.466 73.6034 124.008 75.5311 126.013C77.4588 128.018 79.0395 130.331 80.2732 132.953C81.5069 135.574 82.1237 138.504 82.1237 141.743C85.208 141.897 88.0995 142.514 90.7983 143.593C93.497 144.673 95.8102 146.215 97.7379 148.22C99.6656 150.225 101.246 152.538 102.48 155.159C103.714 157.781 104.331 160.711 104.331 163.95C107.492 164.104 110.422 164.759 113.121 165.916C115.819 167.073 118.171 168.653 120.176 170.658C122.181 172.663 123.761 175.053 124.918 177.829C126.075 180.605 126.653 183.573 126.653 186.735C126.653 190.205 125.959 193.443 124.571 196.45C123.183 199.457 121.178 202.079 118.557 204.315C119.713 205.395 120.754 206.281 121.68 206.975C122.605 207.669 123.954 208.016 125.728 208.016C127.964 208.016 129.891 207.207 131.511 205.587C133.13 203.968 133.978 202.041 134.055 199.804C134.055 197.491 133.246 195.525 131.626 193.906L142.036 183.381L149.554 190.783C151.327 192.402 153.255 193.212 155.337 193.212C157.573 193.212 159.501 192.402 161.12 190.783C162.739 189.164 163.587 187.236 163.664 185C163.664 182.687 162.855 180.72 161.235 179.101L148.166 166.032L158.691 155.622L171.645 168.576C173.264 170.195 175.23 171.005 177.544 171.005C179.857 171.005 181.823 170.195 183.442 168.576C185.062 166.957 185.871 164.991 185.871 162.677C185.871 160.364 185.062 158.398 183.442 156.779L170.373 143.825L180.898 133.3L193.967 146.369C195.587 147.989 197.514 148.798 199.75 148.798ZM219.76 82.1777L154.296 16.5983L96.003 36.0292L75.8781 76.2791C75.4925 76.973 75.2227 77.9369 75.0685 79.1706C74.9142 80.4043 74.8371 81.4067 74.8371 82.1777C74.8371 84.1825 75.5696 85.9174 77.0347 87.3825C78.4997 88.8475 80.2346 89.58 82.2394 89.58C84.3213 89.58 86.249 89.1945 88.0224 88.4234C89.7959 87.6523 91.338 86.6114 92.6488 85.3006C93.9596 83.9898 95.0391 82.4091 95.8873 80.5585C96.7355 78.7079 97.121 76.7803 97.0439 74.7755C97.0439 70.6888 97.815 66.872 99.3571 63.3251C100.899 59.7782 103.02 56.6168 105.718 53.8409C108.417 51.0651 111.54 48.9446 115.087 47.4796C118.634 46.0146 122.489 45.2435 126.653 45.1664C127.887 45.1664 129.198 45.2821 130.585 45.5134C131.973 45.7447 133.438 46.0531 134.981 46.4387C136.523 46.8242 137.872 47.364 139.029 48.0579C140.185 48.7519 141.303 49.5615 142.383 50.4868L196.975 105.079L219.76 82.1777Z" fill="#E7F2FB"/>
</g>
<defs>
<clipPath id="clip0_165_1614">
<rect width="236.873" height="236.873" fill="white" transform="translate(0.814453 0.75293)"/>
</clipPath>
</defs>
</svg>
