<svg width="232" height="233" viewBox="0 0 232 233" fill="none" xmlns="http://www.w3.org/2000/svg">
<g clip-path="url(#clip0_165_1600)">
<path d="M150.407 143.108C146.648 137.157 144.706 130.239 144.817 123.2C144.929 116.162 147.09 109.309 151.036 103.48C154.981 97.651 160.541 93.0985 167.034 90.3798C173.527 87.6611 180.671 86.8941 187.593 88.1727C194.515 89.4513 200.914 92.72 206.007 97.5788C211.101 102.438 214.667 108.676 216.27 115.53C217.873 122.384 217.443 129.557 215.033 136.17C212.623 142.784 208.337 148.552 202.7 152.767C220.296 162.47 231.707 181.108 231.707 203.41V225.132C231.707 227.053 230.944 228.895 229.587 230.253C228.229 231.61 226.387 232.373 224.466 232.373C222.546 232.373 220.704 231.61 219.346 230.253C217.988 228.895 217.226 227.053 217.226 225.132V203.41C217.226 178.443 198.747 159.965 173.78 159.965C160.602 159.965 154.983 159.675 147.641 158.198C129.539 154.52 113.855 143.716 95.7241 121.038C95.0767 120.303 94.5853 119.444 94.2795 118.513C93.9737 117.582 93.86 116.599 93.9452 115.623C94.0304 114.647 94.3127 113.699 94.7751 112.835C95.2375 111.972 95.8703 111.211 96.6353 110.599C97.4003 109.987 98.2814 109.536 99.2255 109.275C100.17 109.013 101.157 108.946 102.128 109.077C103.099 109.208 104.033 109.535 104.874 110.038C105.714 110.54 106.445 111.208 107.02 112.001C120.053 128.279 130.958 137.2 142.268 141.587C144.513 142.341 147.264 142.789 150.407 143.108ZM176.257 144.962C177.464 145.107 178.675 145.271 179.892 145.454L181.021 145.483C186.574 145.471 191.911 143.332 195.937 139.507C199.962 135.682 202.37 130.461 202.665 124.916C202.96 119.371 201.121 113.924 197.525 109.693C193.929 105.462 188.849 102.768 183.329 102.166C177.809 101.564 172.268 103.099 167.844 106.455C163.42 109.811 160.45 114.734 159.542 120.212C158.635 125.69 159.86 131.308 162.966 135.911C166.072 140.514 170.837 143.752 176.257 144.962ZM141.631 174.012C143.551 174.012 145.393 174.775 146.751 176.133C148.109 177.491 148.872 179.332 148.872 181.253C148.764 182.393 148.521 183.516 148.148 184.598C145.556 190.101 144.817 195.807 144.817 203.453V225.176C144.817 227.096 144.054 228.938 142.696 230.296C141.338 231.654 139.497 232.417 137.576 232.417C135.656 232.417 133.814 231.654 132.456 230.296C131.098 228.938 130.335 227.096 130.335 225.176V203.453C130.335 193.939 131.378 186.278 134.781 178.892C135.273 177.467 136.197 176.231 137.425 175.356C138.653 174.481 140.123 174.011 141.631 174.012ZM86.282 84.2544C87.4119 85.7585 87.9121 87.6433 87.6767 89.5098C87.4412 91.3762 86.4886 93.0778 85.0205 94.2541C83.5524 95.4305 81.6841 95.9893 79.8112 95.8122C77.9383 95.6352 76.2079 94.7361 74.9863 93.3055L45.0381 55.8703C44.3907 55.135 43.8993 54.2761 43.5935 53.3454C43.2878 52.4147 43.174 51.4316 43.2592 50.4557C43.3444 49.4798 43.6268 48.5313 44.0891 47.6676C44.5515 46.804 45.1844 46.0432 45.9493 45.4312C46.7143 44.8192 47.5955 44.3688 48.5396 44.1073C49.4836 43.8458 50.471 43.7785 51.4418 43.9096C52.4126 44.0408 53.3467 44.3675 54.1876 44.8701C55.0285 45.3727 55.7586 46.0407 56.3338 46.8337L86.282 84.2544ZM14.4817 159.965H94.1311C96.0515 159.965 97.8932 160.728 99.2511 162.086C100.609 163.443 101.372 165.285 101.372 167.206C101.372 169.126 100.609 170.968 99.2511 172.326C97.8932 173.684 96.0515 174.446 94.1311 174.446H7.24085C5.32046 174.446 3.47872 173.684 2.1208 172.326C0.762873 170.968 0 169.126 0 167.206V7.90687C0 5.98647 0.762873 4.14474 2.1208 2.78681C3.47872 1.42889 5.32046 0.666016 7.24085 0.666016L181.021 0.666016C182.942 0.666016 184.783 1.42889 186.141 2.78681C187.499 4.14474 188.262 5.98647 188.262 7.90687V51.352C188.262 53.2724 187.499 55.1141 186.141 56.472C184.783 57.83 182.942 58.5928 181.021 58.5928C179.101 58.5928 177.259 57.83 175.901 56.472C174.543 55.1141 173.78 53.2724 173.78 51.352V15.1477H14.4817V159.965Z" fill="#C6FF94"/>
</g>
<defs>
<clipPath id="clip0_165_1600">
<rect width="231.707" height="231.707" fill="white" transform="translate(0 0.666016)"/>
</clipPath>
</defs>
</svg>
